# xmcd
#
# Track frame offsets: 
#        150
#        18352
#        35847
#        49507
#        66245
#        82970
#        96980
#        110977
#        126960
#        143912
#
# Disc length: 2186 seconds
#
# Revision: 1
# Processed by: cddbd v1.4PL0 Copyright (c) Steve Scherf et al.
# Submitted via: ExactAudioCopy v0.90b4
#
DISCID=8e08880a
DTITLE=Antoniadis Xristos - ?hema
DYEAR=1999
DGENRE=Greek Pop
TTITLE0=An
TTITLE1=Auton ton erota(o tauros)
TTITLE2=Ferte ton logariasmo
TTITLE3=xeno aroma
TTITLE4=Eisai thema
TTITLE5=Thelo na m`agapas
TTITLE6=Trella mou matia
TTITLE7=Tha figo apopse
TTITLE8=fere na pioume agapi mou
TTITLE9=Ti thelis apo menane
EXTD=KLcanislupus©
EXTT0=
EXTT1=
EXTT2=
EXTT3=
EXTT4=
EXTT5=
EXTT6=
EXTT7=
EXTT8=
EXTT9=
PLAYORDER=
